<?xml version="1.0" encoding="UTF-8" standalone="no"?>
<svg width="36" height="36" xmlns="http://www.w3.org/2000/svg" viewBox="0 0 80 80"><path d="M40 0C17.9468 0 0 17.9468 0 40C0 62.0532 17.9468 80 40 80C62.0532 80 80 62.0532 80 40C80 17.9468 62.0532 0 40 0ZM73.8454 40C73.8454 58.6589 58.6589 73.8454 40 73.8454C21.3411 73.8454 6.1546 58.6589 6.1546 40C6.1546 21.3411 21.3411 6.1546 40 6.1546C58.6589 6.1546 73.8454 21.3411 73.8454 40Z" fill="url(#paint0_linear_6236_46)"></path><path d="M56.4936 36.0684H56.4839C55.8402 36.0684 55.2354 36.322 54.777 36.7706C54.3186 37.2291 54.0552 37.8338 54.0552 38.4873L54.0455 41.4817C54.0357 42.8179 55.1281 43.9201 56.4644 43.9201H56.4741C57.8104 43.9201 58.9028 42.8374 58.9028 41.5012L58.9126 38.5068C58.9223 37.1705 57.8299 36.0781 56.4936 36.0684Z" fill="url(#paint1_linear_6236_46)"></path><path d="M47.7445 27.8555H47.7348C46.3985 27.8555 45.3061 28.9381 45.3061 30.2744L45.2183 49.7038C45.2086 51.0401 46.301 52.1422 47.6372 52.1422H47.647C48.2907 52.1422 48.8955 51.8886 49.3539 51.44C49.8123 50.9815 50.0757 50.3768 50.0757 49.7233L50.1635 30.2939C50.1635 29.6502 49.9196 29.0357 49.4612 28.5772C49.0028 28.1188 48.398 27.8555 47.7445 27.8555Z" fill="url(#paint2_linear_6236_46)"></path><path d="M39.0051 19.877H38.9954C37.6591 19.877 36.5667 20.9596 36.5667 22.2959L36.4009 57.6824C36.4009 58.3261 36.6447 58.9406 37.1031 59.399C37.5616 59.8575 38.1663 60.1208 38.8198 60.1208H38.8296C40.1658 60.1208 41.2582 59.0381 41.2582 57.7019L41.424 22.3056C41.4338 20.9694 40.3414 19.877 39.0051 19.877Z" fill="url(#paint3_linear_6236_46)"></path><path d="M31.2996 19.6045C30.4412 18.9998 29.3293 18.8633 28.3344 19.2242C26.8714 19.7606 25.5644 20.5702 24.4525 21.6431C22.3554 23.7206 21.2045 26.4907 21.224 29.4363C21.2435 32.3819 22.4139 35.1325 24.5402 37.1905L27.1152 39.6875C27.1933 39.7557 27.2323 39.8533 27.2323 39.9606C27.2323 40.0679 27.1933 40.1556 27.1152 40.2337L24.5793 42.6526C22.3749 44.7496 21.1069 47.705 21.1069 50.7384C21.1069 53.6645 22.2384 56.3663 24.3062 58.3463C25.4181 59.4095 26.7251 60.2288 28.1881 60.775C28.549 60.9116 28.9294 60.9798 29.3098 60.9798C29.9536 60.9798 30.5876 60.7848 31.1338 60.4141C31.9921 59.8191 32.4895 58.873 32.4993 57.8294L32.6651 22.2283C32.6456 21.1651 32.1579 20.2093 31.2996 19.6045Z" fill="url(#paint4_linear_6236_46)"></path><defs><linearGradient id="paint0_linear_6236_46" x1="40" y1="79.9963" x2="40" y2="0.00366177" gradientUnits="userSpaceOnUse"><stop stop-color="#E13F8C"></stop><stop offset="0.5035" stop-color="#9D2AD5"></stop><stop offset="1" stop-color="#27AAE1"></stop></linearGradient><linearGradient id="paint1_linear_6236_46" x1="56.4739" y1="79.9791" x2="56.4739" y2="-0.00560828" gradientUnits="userSpaceOnUse"><stop stop-color="#E13F8C"></stop><stop offset="0.5035" stop-color="#9D2AD5"></stop><stop offset="1" stop-color="#27AAE1"></stop></linearGradient><linearGradient id="paint2_linear_6236_46" x1="47.6918" y1="79.9788" x2="47.6918" y2="-0.0058619" gradientUnits="userSpaceOnUse"><stop stop-color="#E13F8C"></stop><stop offset="0.5035" stop-color="#9D2AD5"></stop><stop offset="1" stop-color="#27AAE1"></stop></linearGradient><linearGradient id="paint3_linear_6236_46" x1="38.91" y1="79.9789" x2="38.91" y2="-0.00583547" gradientUnits="userSpaceOnUse"><stop stop-color="#E13F8C"></stop><stop offset="0.5035" stop-color="#9D2AD5"></stop><stop offset="1" stop-color="#27AAE1"></stop></linearGradient><linearGradient id="paint4_linear_6236_46" x1="26.8647" y1="79.9796" x2="26.8647" y2="-0.00513791" gradientUnits="userSpaceOnUse"><stop stop-color="#E13F8C"></stop><stop offset="0.5035" stop-color="#9D2AD5"></stop><stop offset="1" stop-color="#27AAE1"></stop></linearGradient></defs></svg>
