<?xml version="1.0" encoding="UTF-8" standalone="no"?>
<svg width="36" height="36" xmlns="http://www.w3.org/2000/svg" viewBox="0 0 101 101"><circle cx="50.5" cy="50.5" r="50.5" fill="#122130"></circle><path d="M51.4286 26C36.27 26 24 38.2674 24 53.4286V58.5714C24 59.2082 24.1773 59.8323 24.512 60.374C24.8468 60.9156 25.3257 61.3533 25.8952 61.6381L27.4363 62.4085C27.6517 68.8467 32.938 74 39.4286 74H42C43.4202 74 44.5714 72.8488 44.5714 71.4286V52.5714C44.5714 51.1513 43.4202 50 42 50H39.4286C36.0705 50 33.0352 51.3799 30.8571 53.6029V53.4286C30.8571 42.0855 40.0855 32.8571 51.4286 32.8571C62.7717 32.8571 72 42.0855 72 53.4286V53.6029C69.8219 51.3799 66.7866 50 63.4286 50H60.8571C59.437 50 58.2857 51.1513 58.2857 52.5714V71.4286C58.2857 72.8488 59.437 74 60.8571 74H63.4286C69.9192 74 75.2054 68.8466 75.4209 62.4085L76.9618 61.6381C77.5313 61.3533 78.0103 60.9156 78.3451 60.374C78.6798 59.8323 78.8571 59.2082 78.8571 58.5714V53.4286C78.8571 38.2701 66.5897 26 51.4286 26Z" fill="white"></path></svg>
