<?xml version="1.0" standalone="no"?>
<!DOCTYPE svg PUBLIC "-//W3C//DTD SVG 20010904//EN"
 "http://www.w3.org/TR/2001/REC-SVG-20010904/DTD/svg10.dtd">
<svg version="1.0" xmlns="http://www.w3.org/2000/svg"
 width="512.000000pt" height="512.000000pt" viewBox="0 0 512 512"
 preserveAspectRatio="xMidYMid meet">

<g transform="translate(-40.000000,550) scale(0.120000,-0.120000)"
fill="#FFFFFF" stroke="none">
<path d="M2455 4404 c-285 -27 -467 -74 -680 -174 -567 -265 -957 -799 -1046
-1430 -15 -109 -15 -371 0 -480 89 -634 462 -1143 1050 -1435 58 -29 163 -82
234 -118 144 -74 294 -126 459 -159 97 -20 143 -23 333 -23 190 0 236 3 333
23 772 156 1331 764 1423 1547 17 147 6 391 -25 541 -50 238 -158 486 -296
674 -38 52 -87 125 -109 161 -241 397 -656 700 -1119 819 -156 39 -430 66
-557 54z m283 -85 c484 -52 920 -293 1213 -669 85 -109 129 -179 190 -300 340
-679 206 -1503 -331 -2040 -237 -237 -535 -401 -864 -474 -590 -133 -1208 46
-1636 474 -237 237 -401 535 -474 864 -133 590 46 1208 474 1636 236 236 535
401 861 474 194 43 384 55 567 35z"/>
<path d="M2375 3563 c-200 -31 -371 -112 -503 -237 -86 -82 -137 -153 -193
-269 -148 -310 -121 -752 62 -1033 152 -233 381 -354 666 -354 128 0 219 20
321 71 174 85 277 229 350 489 7 25 10 -41 11 -242 l1 -278 210 0 210 0 0 465
0 465 -480 0 -480 0 0 -90 0 -90 225 0 c180 0 225 -3 225 -13 0 -30 -34 -127
-68 -191 -94 -179 -260 -266 -454 -237 -202 31 -363 187 -424 411 -25 90 -25
290 0 380 68 248 236 400 462 417 219 17 405 -108 449 -302 l12 -50 236 -3
237 -2 0 31 c0 53 -29 151 -73 239 -34 70 -58 102 -136 180 -78 78 -113 105
-187 143 -51 26 -134 59 -185 73 -83 23 -115 27 -279 29 -102 2 -198 1 -215
-2z"/>
</g>
</svg>
