<svg id="svg" xmlns="http://www.w3.org/2000/svg" xmlns:xlink="http://www.w3.org/1999/xlink" width="400" height="262.5" viewBox="0, 0, 400,262.5"><g id="svgg"><path id="path0" d="M18.017 0.614 C 9.785 2.837,2.156 10.856,0.390 19.141 C -0.218 21.991,0.090 195.213,0.728 209.279 C 1.317 222.255,2.466 227.617,6.308 235.294 C 13.359 249.385,26.890 259.440,42.449 262.150 C 45.300 262.646,209.744 262.331,235.352 261.779 L 249.023 261.485 253.320 260.002 C 275.921 252.204,288.887 234.880,291.992 208.335 C 292.690 202.372,291.893 203.081,298.329 202.688 C 370.278 198.291,413.556 140.825,396.281 72.626 C 386.898 35.587,355.292 8.346,313.063 0.901 C 307.601 -0.062,21.550 -0.340,18.017 0.614 M305.916 18.377 C 343.477 22.165,373.549 48.282,379.882 82.617 C 390.663 141.072,354.119 183.132,291.179 184.706 L 280.991 184.961 279.080 186.143 C 275.541 188.332,274.907 189.940,274.565 197.584 C 273.423 223.097,265.420 236.726,248.165 242.538 C 244.600 243.739,65.729 245.753,49.976 244.770 C 34.702 243.817,22.827 233.744,19.724 219.110 C 18.373 212.737,17.429 147.474,17.647 75.586 L 17.806 23.242 18.758 21.551 C 19.301 20.586,20.385 19.455,21.281 18.918 L 22.852 17.976 162.361 17.972 C 256.501 17.970,303.186 18.101,305.916 18.377 M280.664 48.199 C 278.861 48.986,277.008 50.713,276.057 52.491 L 275.195 54.102 275.195 101.593 L 275.195 149.085 276.378 150.997 C 277.113 152.187,278.284 153.356,279.477 154.091 L 281.394 155.273 292.552 155.220 C 317.110 155.102,327.406 151.656,338.996 139.675 C 365.573 112.201,353.787 61.044,318.307 49.873 C 311.379 47.692,284.555 46.499,280.664 48.199 M178.320 65.831 C 167.914 67.767,157.920 73.188,148.931 81.775 L 147.276 83.355 143.853 80.029 C 127.654 64.293,102.604 61.322,83.284 72.846 C 65.571 83.411,61.967 109.984,75.207 132.385 C 79.632 139.870,112.851 173.542,135.555 193.555 C 138.236 195.918,141.537 198.950,142.890 200.293 C 146.020 203.398,147.684 203.625,150.451 201.323 C 161.480 192.149,203.452 150.285,213.068 138.867 C 226.243 123.223,229.916 103.286,222.495 87.695 C 215.164 72.293,195.610 62.615,178.320 65.831 M311.133 66.590 C 337.763 74.041,344.263 115.545,321.242 131.146 C 314.582 135.660,311.882 136.331,296.582 137.276 L 293.359 137.476 293.359 101.505 L 293.359 65.534 301.074 65.734 C 306.582 65.877,309.460 66.122,311.133 66.590 " stroke="none" fill="#ffffff" fill-rule="evenodd"></path></g></svg>