<?xml version="1.0" standalone="no"?>
<!DOCTYPE svg PUBLIC "-//W3C//DTD SVG 20010904//EN" "http://www.w3.org/TR/2001/REC-SVG-20010904/DTD/svg10.dtd">
<svg version="1.0" xmlns="http://www.w3.org/2000/svg"
    width="483.000000pt" height="517.000000pt" viewBox="0 0 483.000000 517.000000"
    preserveAspectRatio="xMidYMid meet">

    <g transform="translate(0.000000,517.000000) scale(0.100000,-0.100000)"
        fill="currentColor" stroke="currentColor">
        <path d="M0 2585 l0 -2575 1445 0 1446 0 -3 2204 c-2 1212 -2 2204 -2 2203 1
-1 16 -74 33 -162 64 -323 895 -4230 902 -4238 5 -7 996 196 1004 205 4 4
-1045 4931 -1050 4936 -2 2 -197 -37 -433 -87 -236 -50 -434 -91 -441 -91 -7
0 -11 29 -11 90 l0 90 -1445 0 -1445 0 0 -2575z m580 869 c0 -1755 -3 -1656
56 -1683 15 -6 80 -11 159 -11 l135 0 0 -791 0 -791 -34 -34 -34 -34 -344 0
c-301 0 -346 2 -367 16 -54 38 -51 -109 -51 2502 0 1330 3 2422 7 2425 3 4
111 7 240 7 l233 0 0 -1606z m1110 -21 l5 -1622 23 -23 c16 -17 38 -24 80 -28
l57 -5 0 -793 0 -794 -33 -29 -32 -29 -345 0 -345 0 -32 29 -33 29 -3 796 -2
796 56 0 c48 0 59 4 85 29 l29 29 0 1615 c0 887 3 1617 7 1621 4 3 113 5 242
4 l236 -3 5 -1622z m1097 -803 c3 -2292 2 -2427 -15 -2460 -29 -59 -33 -60
-406 -60 l-338 0 -34 34 -34 34 0 791 0 791 140 0 140 0 32 29 33 29 3 1621 2
1621 238 -2 237 -3 2 -2425z m889 2375 c12 -8 26 -27 33 -42 6 -15 229 -1055
496 -2310 370 -1741 483 -2288 476 -2306 -20 -51 -48 -61 -373 -130 -172 -37
-325 -67 -339 -67 -28 0 -64 23 -79 50 -21 39 -981 4584 -975 4616 10 58 26
64 358 135 172 37 328 68 347 68 20 1 45 -6 56 -14z" />
    </g>
</svg>